<svg width="44" height="44" viewBox="0 0 44 44" fill="none" xmlns="http://www.w3.org/2000/svg">
<path d="M19.75 14.5C20.1642 14.5 20.5 14.8358 20.5 15.25V16H23.5V15.25C23.5 14.8358 23.8358 14.5 24.25 14.5C24.6642 14.5 25 14.8358 25 15.25V16H27.25C28.0784 16 28.75 16.6716 28.75 17.5V27.25C28.75 28.0784 28.0784 28.75 27.25 28.75H16.75C15.9216 28.75 15.25 28.0784 15.25 27.25V17.5C15.25 16.6716 15.9216 16 16.75 16H19V15.25C19 14.8358 19.3358 14.5 19.75 14.5ZM19 17.5H16.75V19.75H27.25V17.5H25V18.25C25 18.6642 24.6642 19 24.25 19C23.8358 19 23.5 18.6642 23.5 18.25V17.5H20.5V18.25C20.5 18.6642 20.1642 19 19.75 19C19.3358 19 19 18.6642 19 18.25V17.5ZM27.25 21.25H16.75V27.25H27.25V21.25Z" fill="#828282"/>
</svg>
