<svg width="14" height="12" viewBox="0 0 14 12" fill="none" xmlns="http://www.w3.org/2000/svg">
<path d="M0.777778 4.94976C0.348223 4.94976 0 5.29798 0 5.72753C0 6.15709 0.348223 6.50531 0.777778 6.50531L0.777778 4.94976ZM13.7722 6.27751C14.0759 5.97377 14.0759 5.4813 13.7722 5.17756L8.82245 0.227815C8.51871 -0.0759262 8.02624 -0.0759262 7.7225 0.227815C7.41876 0.531556 7.41876 1.02402 7.7225 1.32776L12.1223 5.72753L7.7225 10.1273C7.41876 10.4311 7.41876 10.9235 7.7225 11.2273C8.02624 11.531 8.51871 11.531 8.82245 11.2273L13.7722 6.27751ZM0.777778 6.50531L13.2222 6.50531V4.94976L0.777778 4.94976L0.777778 6.50531Z" fill="#333333"/>
</svg>
